<?xml version="1.0" encoding="utf-8"?>
<!-- Generator: Adobe Illustrator 27.2.0, SVG Export Plug-In . SVG Version: 6.00 Build 0)  -->
<svg version="1.2" baseProfile="tiny" id="Ebene_1" xmlns="http://www.w3.org/2000/svg" xmlns:xlink="http://www.w3.org/1999/xlink"
	 x="0px" y="0px" viewBox="0 0 34 34" overflow="visible" xml:space="preserve">
<g>
	<path d="M45.9,17.4c0-5.2,3.6-8.2,7.8-8.2c2.3,0,4,1,5.1,2.1l-2.2,2.6c-0.8-0.7-1.5-1.2-2.8-1.2c-2.1,0-3.7,1.7-3.7,4.5
		c0,2.9,1.3,4.6,4.1,4.6c0.4,0,0.9-0.1,1.2-0.3v-2.2h-2.3V16h6v7.4c-1.1,1.1-3.1,1.9-5.3,1.9C49.4,25.3,45.9,22.7,45.9,17.4z"/>
	<path d="M62,17.5V9.4h4.1V18c0,2.8,0.7,3.8,2.4,3.8c1.6,0,2.4-1,2.4-3.8V9.4h4v8.1c0,5.3-2,7.8-6.4,7.8C64.1,25.3,62,22.8,62,17.5z
		"/>
	<path d="M80.5,19.7L75.8,9.4h4.4l1.2,3.3c0.4,1.2,0.8,2.3,1.2,3.5h0.1c0.4-1.2,0.8-2.3,1.2-3.5L85,9.4h4.3l-4.7,10.2V25h-4.1V19.7z
		"/>
	<path fill="#009FE3" d="M89.7,17.4c0-5.2,3.6-8.2,7.5-8.2c2.1,0,3.7,1,4.8,2.1l-2.2,2.6c-0.8-0.7-1.5-1.2-2.6-1.2
		c-1.8,0-3.4,1.7-3.4,4.5c0,2.9,1.3,4.6,3.4,4.6c1.2,0,2.2-0.6,2.8-1.3l2.2,2.6c-1.3,1.5-3.1,2.3-5.1,2.3
		C93.1,25.3,89.7,22.7,89.7,17.4z"/>
	<path fill="#009FE3" d="M102.8,17.2c0-5.1,2.9-8,7.2-8s7.2,2.9,7.2,8c0,5.1-2.9,8.2-7.2,8.2S102.8,22.3,102.8,17.2z M113,17.2
		c0-2.8-1.2-4.5-3-4.5s-3,1.6-3,4.5c0,2.8,1.2,4.6,3,4.6S113,20,113,17.2z"/>
	<path fill="#009FE3" d="M120,9.4h4.1v12.1h5.9V25h-10V9.4z"/>
	<path fill="#009FE3" d="M132.8,9.4h4.1v12.1h5.9V25h-10V9.4z"/>
	<path fill="#009FE3" d="M145.5,9.4h10.1v3.5h-6v2.4h5.1v3.5h-5.1v2.8h6.2V25h-10.3V9.4z"/>
</g>
<rect x="0" y="25.9" fill="#009FE3" width="8.1" height="8.1"/>
<path d="M34,27h-7V7h7V27z M34,34v-7H11.1v7H34z M34,7V0L7,0v7H34z M7,0H0v22.9h7V0z"/>
</svg>
